C:\GBW_MyPrograms\KinderuniversiteitApp\Resultaten\Ellis_v10102025\Aarde\Aarde_v2.mot
version=1
nRows=6
nColumns=29
inDegrees=yes
endheader
                time	         pelvis_tilt	           pelvis_tx	           pelvis_ty	       hip_flexion_l	       hip_flexion_r	        knee_angle_l	        knee_angle_r	       ankle_angle_l	       ankle_angle_r	    lumbar_extension	hamstrings_r/activation	bifemsh_r/activation	glut_max_r/activation	iliopsoas_r/activation	rect_fem_r/activation	  vasti_r/activation	gastroc_r/activation	 soleus_r/activation	tib_ant_r/activation	hamstrings_l/activation	bifemsh_l/activation	glut_max_l/activation	iliopsoas_l/activation	rect_fem_l/activation	  vasti_l/activation	gastroc_l/activation	 soleus_l/activation	tib_ant_l/activation	
          1.50434786	         -2.88663088	          1.98292398	          0.89243855	         31.64425620	         -7.04663844	        -26.46631544	        -31.26501967	          6.37052730	        -10.71921441	         -3.91672717	          0.49427248	          0.58033156	          0.37474547	          0.81668868	          0.71196685	          0.49030953	          0.68668761	          0.67184959	          0.18698591	          0.60993261	          0.59801241	          0.46703333	          0.63496677	          0.58449217	          0.38780720	          0.25513684	          0.17499091	          0.79891413	
          1.51437685	         -2.95266312	          2.00136154	          0.89075351	         30.90825093	         -7.76712435	        -26.02042386	        -31.22514625	          6.72246995	        -13.83787078	         -3.24453271	          0.52213027	          0.60690484	          0.36935521	          0.82777922	          0.66116774	          0.42251826	          0.64123337	          0.62696754	          0.16028154	          0.61490726	          0.61377053	          0.51457756	          0.57219420	          0.55882450	          0.41680505	          0.27899644	          0.16242918	          0.84264350	
          1.52440584	         -3.01643189	          2.02020103	          0.88907566	         30.09456137	         -8.35924894	        -26.49886360	        -31.37759455	          6.93092582	        -17.12372548	         -2.52482558	          0.56013617	          0.65974994	          0.39234145	          0.79270356	          0.60956817	          0.36451581	          0.62183415	          0.61619954	          0.40669535	          0.57341863	          0.60852513	          0.63343206	          0.49573168	          0.52352796	          0.52917449	          0.33158611	          0.20704611	          0.83200590	
          1.53443482	         -3.09886738	          2.03906533	          0.88737395	         29.19891871	         -8.91357872	        -27.07191240	        -31.60549965	          7.21645548	        -19.13729118	         -1.78027348	          0.59012250	          0.66491436	          0.39985488	          0.77428007	          0.55012937	          0.31366930	          0.58401081	          0.58998470	          0.38359340	          0.53960781	          0.60250918	          0.69999251	          0.43413653	          0.49947411	          0.60610603	          0.35830427	          0.24471626	          0.81980130	
          1.54446381	         -3.18341997	          2.05746367	          0.88597059	         28.43996641	         -9.44670718	        -27.88127399	        -31.70799952	          8.04497089	        -19.71423043	         -1.09258668	          0.58112263	          0.67331996	          0.39877436	          0.76507605	          0.56740803	          0.28176295	          0.64428548	          0.63415502	          0.61398306	          0.51291162	          0.59361316	          0.71943697	          0.42961231	          0.50785098	          0.65297625	          0.38449840	          0.27716754	          0.77528889	
          1.55449279	         -3.25715665	          2.07512062	          0.88525263	         27.85679948	         -9.84140588	        -28.95176878	        -31.81649124	          9.05447133	        -19.26413197	         -0.51038915	          0.59649971	          0.70208380	          0.40440167	          0.78370061	          0.54470562	          0.24293571	          0.59219234	          0.54542888	          0.67144653	          0.48947906	          0.58656603	          0.73714288	          0.45231364	          0.52456679	          0.68313444	          0.41829128	          0.32262220	          0.71514484	
